<svg width="500" height="310" xmlns="http://www.w3.org/2000/svg">
 <!-- Created with Method Draw - http://github.com/duopixel/Method-Draw/ -->

 <g>
  <title>background</title>
  <rect x="-1" y="-1" width="502" height="312" id="canvas_background" fill="none"/>
  <g id="canvasGrid" display="none">
   <rect id="svg_4" width="100%" height="100%" x="0" y="0" stroke-width="0" fill="url(#gridpattern)"/>
  </g>
 </g>
 <g>
  <title>Layer 1</title>
  <g id="svg_23" stroke="null">
   <path fill="#00ffff" stroke-width="8" d="m400.06462,82.19852c100.01912,0.1418 104.81439,163.52798 -1.71038,163.75928l-362.9465,0l105.75515,-20.52121l-106.66291,-20.52121l104.84737,-20.52122l-104.39348,-20.52121l104.39348,-20.52122l-104.39348,-20.52121l103.93959,-20.52121l-103.48572,-20.52122l362.9465,0.41043l1.71038,0z" id="svg_10" stroke="#ffffff"/>
  </g>
  <path id="svg_13" stroke-opacity="null" stroke-width="0" stroke="#000" fill="#ffff00"/>
  <path fill="#00007f" stroke-width="0" d="m212.08433,101.86432c14.92004,3.62017 34.99893,17.72755 34.63087,33.13568l0.55261,65c-0.06698,13.47231 -22.47387,27.26135 -39.23598,29.11796l90.6296,0c17.49937,-0.00061 38.59215,-6.59132 38.68337,-27.56697c0.09122,-20.97566 -16.76288,-33.87792 -31.49934,-35.54932c9.57901,0.55627 32.05105,-3.25002 32.05196,-28.49514c0.0009,-25.24512 -27.81503,-35.73422 -39.23599,-36.4775l-88.41912,0l1.84202,0.83529z" id="svg_1" stroke="#ffffff"/>
  <path fill="#00ffff" stroke-width="0" d="m289.03206,204.791843c5.37829,-0.34018 10.21199,1.53631 10.30363,-4.22981c0.09164,-5.76613 0.07592,-3.17725 0,-9.72859c-0.07994,-5.67025 -3.69528,-5.81098 -10.30363,-5.49876l0,19.45716z" id="svg_5" stroke="#ffffff"/>
  <g id="svg_18">
   <path id="svg_8" d="m351.7596,109.93634l11.36026,43.30225l14.23553,0l4.77235,-19.24681l7.15053,19.24681l11.93041,-0.09511l13.13241,-46.64714c1.04402,-4.17048 1.3424,-5.45411 7.15854,-5.50049l-18.79966,0.0014l-8.64136,29.05097l-9.25424,-29.05237l-5.96521,0l-8.04575,29.14657l-9.84985,-29.14657l-20.94458,0c9.28347,0.41296 10.08852,5.84884 11.76062,8.94048l0,0.00001z" stroke-width="0" fill="#00007f" stroke="#ffffff"/>
  </g>
  <g id="svg_19">
   <g id="svg_22">
    <path fill="#00007f" stroke-width="0" d="m350.05776,172.60377c6.87843,1.53846 16.13519,7.84823 15.9655,14.39623l0.25477,27c-0.32712,5.89563 -10.36088,11.8939 -18.08854,12.68291l41.78198,0c8.06755,-0.00026 16.73084,-5.66447 17.83378,-11.71517c1.10294,-6.0507 0.25436,-16.23929 0.25477,-26.96774c0.00042,-10.72845 -12.82326,-15.43534 -18.08855,-15.75122l-40.76291,0l0.84921,0.35499l-0.00001,0z" id="svg_6" stroke="#ffffff"/>
    <path stroke="#ffffff" fill="#00ffff" stroke-width="0" d="m383.287778,209.566051c4.33233,-0.372327 8.22597,1.681426 8.29979,-4.629363c0.07382,-6.3108 0.06116,-3.477375 0,-10.647565c-0.06439,-6.205853 -2.97663,-6.359883 -8.29979,-6.01818l0,21.295108z" id="svg_7"/>
   </g>
  </g>
  <path fill="#00ffff" stroke-width="0" d="m289.42345,146.10146c5.79774,-0.36452 10.8683,-0.71059 10.96709,-6.88879c0.09879,-6.1782 0.15189,1.93752 0.07005,-5.08201c-0.08617,-6.86102 -3.91342,-9.21138 -11.03714,-8.87686l0,20.84766z" id="svg_2" stroke="#ffffff"/>
 </g>
</svg>